<?xml version="1.0" standalone="no"?>
<!DOCTYPE svg PUBLIC "-//W3C//DTD SVG 20010904//EN"
 "http://www.w3.org/TR/2001/REC-SVG-20010904/DTD/svg10.dtd">
<svg version="1.0" xmlns="http://www.w3.org/2000/svg"
 width="276.000000pt" height="276.000000pt" viewBox="0 0 276.000000 276.000000"
 preserveAspectRatio="xMidYMid meet">
<metadata>
Created by potrace 1.14, written by Peter Selinger 2001-2017
</metadata>
<g transform="translate(0.000000,276.000000) scale(0.100000,-0.100000)"
fill="#000000" stroke="none">
<path d="M1307 2684 c-1 -2 -43 -4 -92 -5 -50 0 -108 -5 -130 -10 -22 -4 -63
-13 -92 -19 -29 -7 -58 -13 -65 -14 -74 -15 -190 -71 -229 -110 -17 -17 -29
-43 -34 -72 -6 -44 -15 -57 -66 -99 -37 -30 -52 -69 -66 -168 -3 -23 -8 -44
-12 -47 -13 -11 -31 -51 -31 -71 0 -21 39 -99 49 -99 3 0 20 -13 37 -28 28
-24 32 -34 37 -102 4 -41 9 -93 12 -115 2 -22 7 -62 10 -90 2 -27 7 -77 11
-111 4 -37 2 -68 -4 -81 -7 -13 -8 -32 -2 -54 4 -19 11 -67 14 -107 3 -40 8
-83 10 -95 5 -23 10 -62 26 -203 4 -44 11 -96 14 -115 3 -19 8 -59 10 -89 5
-65 15 -110 26 -110 12 0 30 -74 30 -124 0 -26 4 -77 10 -114 5 -37 11 -92 14
-122 14 -145 35 -184 121 -228 48 -23 193 -59 253 -61 24 -1 54 -6 68 -11 34
-13 280 -13 305 0 11 6 45 11 77 12 31 0 75 5 97 10 78 19 120 32 130 40 5 4
17 8 27 8 10 0 18 5 18 10 0 6 6 10 13 10 17 0 62 41 72 65 4 11 9 36 11 55 2
19 6 55 9 80 3 25 8 77 11 115 3 39 8 84 11 100 3 17 7 50 10 75 3 25 13 56
23 70 18 26 35 110 45 220 7 89 14 157 21 205 3 22 8 67 10 100 3 33 8 67 10
75 3 8 8 52 11 98 4 62 2 82 -7 82 -13 0 -12 27 5 175 2 22 8 72 12 110 4 39
8 75 9 80 1 6 2 29 3 53 1 30 7 47 22 60 92 74 118 143 77 203 -17 26 -21 41
-34 127 -5 37 -17 55 -58 96 -28 28 -51 53 -51 56 -5 37 -19 90 -28 112 -24
57 -178 124 -362 158 -51 9 -420 21 -428 14z"/>
</g>
</svg>
